<svg xmlns="http://www.w3.org/2000/svg" width="85" height="46" viewBox="0 0 85 46" fill="none"><path fill-rule="evenodd" clip-rule="evenodd" d="M8.76184 42.8502L8.75577 42.8461C6.05656 41.0038 4.0033 38.3821 2.5792 35.0313L2.57627 35.0244L2.57344 35.0175C1.19266 31.6283 0.519531 27.6135 0.519531 23.0002C0.519531 18.3874 1.19249 14.3906 2.57509 11.0388L2.57745 11.0331C4.00048 7.64295 6.05346 4.99865 8.75579 3.15421L8.76183 3.15008C11.5129 1.30173 14.7949 0.400157 18.5595 0.400157C22.3241 0.400157 25.6062 1.30175 28.3572 3.15011C31.102 4.99422 33.1582 7.6406 34.5428 11.0358C35.9666 14.3892 36.6595 18.3874 36.6595 23.0002C36.6595 27.6152 35.9659 31.6325 34.5429 35.0241C33.1572 38.3822 31.1 41.0074 28.3572 42.8502C25.6062 44.6986 22.3241 45.6002 18.5595 45.6002C14.7949 45.6002 11.5129 44.6986 8.76184 42.8502ZM33.6195 11.4202C32.2995 8.18016 30.3595 5.70016 27.7995 3.98016C25.2395 2.26016 22.1595 1.40016 18.5595 1.40016C14.9595 1.40016 11.8795 2.26016 9.31953 3.98016C6.79953 5.70016 4.85953 8.18016 3.49953 11.4202C2.17953 14.6202 1.51953 18.4802 1.51953 23.0002C1.51953 27.5202 2.17953 31.4002 3.49953 34.6402C4.85953 37.8402 6.79953 40.3002 9.31953 42.0202C11.8795 43.7402 14.9595 44.6002 18.5595 44.6002C22.1595 44.6002 25.2395 43.7402 27.7995 42.0202C30.3595 40.3002 32.2995 37.8402 33.6195 34.6402C34.9795 31.4002 35.6595 27.5202 35.6595 23.0002C35.6595 18.4802 34.9795 14.6202 33.6195 11.4202ZM23.9484 32.7353C25.2902 30.5593 26.0195 27.3521 26.0195 23.0002C26.0195 18.5659 25.2895 15.2962 23.9445 13.0788L23.9383 13.0684C22.6689 10.9176 20.908 9.90016 18.5595 9.90016C16.2114 9.90016 14.427 10.9181 13.1177 13.0736C11.8094 15.2937 11.0995 18.5661 11.0995 23.0002C11.0995 27.352 11.8087 30.5619 13.1139 32.7405C14.4197 34.8548 16.2036 35.8602 18.5595 35.8602C20.916 35.8602 22.6763 34.8552 23.942 32.7457L23.9484 32.7353ZM12.2595 12.5602C13.7395 10.1202 15.8395 8.90016 18.5595 8.90016C21.2795 8.90016 23.3595 10.1202 24.7995 12.5602C26.2795 15.0002 27.0195 18.4802 27.0195 23.0002C27.0195 27.4402 26.2795 30.8602 24.7995 33.2602C23.3595 35.6602 21.2795 36.8602 18.5595 36.8602C15.8395 36.8602 13.7395 35.6602 12.2595 33.2602C10.8195 30.8602 10.0995 27.4402 10.0995 23.0002C10.0995 18.4802 10.8195 15.0002 12.2595 12.5602ZM41.7232 45.0002L39.2576 38.8734L52.1042 24.6615L52.1117 24.6535C52.7678 23.9589 53.4687 23.1417 54.2147 22.1995L54.2225 22.1896L54.2305 22.18C55.0156 21.2378 55.7612 20.2765 56.4672 19.2959L56.4713 19.2901C57.2 18.293 57.763 17.3509 58.1697 16.4635C58.5647 15.6016 58.7388 14.8444 58.7388 14.1802C58.7388 13.4085 58.5723 12.7896 58.2768 12.2872L58.2706 12.2766L58.2646 12.2658C57.9632 11.7233 57.5287 11.2986 56.933 10.9851C56.3536 10.6801 55.5842 10.5002 54.5788 10.5002C53.7289 10.5002 52.9279 10.7262 52.1587 11.1944L52.1449 11.2028L52.1308 11.2107C51.352 11.6509 50.5888 12.3312 49.8514 13.2899C49.1168 14.2448 48.4586 15.4221 47.8855 16.8359L47.4616 17.8815L39.0196 13.2082L39.2934 12.4142C40.1306 9.98625 41.3298 7.85473 42.8971 6.03219C44.4674 4.16599 46.3413 2.71731 48.513 1.69534C50.6901 0.670811 53.0159 0.160156 55.4788 0.160156C58.0626 0.160156 60.4238 0.71154 62.5403 1.83302C64.6526 2.9122 66.3293 4.43357 67.5478 6.39186C68.7774 8.36795 69.3788 10.6352 69.3788 13.1602C69.3788 14.1098 69.2715 15.0743 69.0603 16.0523C68.8844 17.0526 68.5613 18.0782 68.1009 19.1273C67.6779 20.1819 67.1142 21.2847 66.4162 22.4347C65.7516 23.5557 64.9283 24.7479 63.951 26.0104C63.0117 27.2355 61.9337 28.5164 60.7187 29.8528L60.715 29.8569L56.0798 34.9002H71.1188V45.0002H41.7232ZM53.8026 35.9002L59.9787 29.1802C61.1787 27.8602 62.2388 26.6002 63.1587 25.4002C64.1187 24.1602 64.9188 23.0002 65.5588 21.9202C66.2388 20.8002 66.7788 19.7402 67.1788 18.7402C67.6188 17.7402 67.9188 16.7802 68.0788 15.8602C68.2788 14.9402 68.3788 14.0402 68.3788 13.1602C68.3788 10.8002 67.8188 8.72016 66.6988 6.92016C65.5788 5.12016 64.0388 3.72016 62.0788 2.72016C60.1188 1.68016 57.9188 1.16016 55.4788 1.16016C53.1587 1.16016 50.9787 1.64016 48.9388 2.60016C46.8988 3.56016 45.1387 4.92016 43.6587 6.68016C42.1787 8.40016 41.0387 10.4202 40.2388 12.7402L46.9588 16.4602C47.0874 16.1428 47.2207 15.8356 47.3585 15.5385C47.8635 14.4499 48.4303 13.4972 49.0588 12.6802C49.8587 11.6402 50.7188 10.8602 51.6387 10.3402C52.5588 9.78016 53.5387 9.50016 54.5788 9.50016C55.6987 9.50016 56.6388 9.70016 57.3988 10.1002C58.1588 10.5002 58.7388 11.0602 59.1387 11.7802C59.5387 12.4602 59.7388 13.2602 59.7388 14.1802C59.7388 15.0202 59.5187 15.9202 59.0788 16.8802C58.6388 17.8402 58.0387 18.8402 57.2788 19.8802C56.5588 20.8802 55.7988 21.8602 54.9987 22.8202C54.2388 23.7802 53.5187 24.6202 52.8387 25.3402L40.4188 39.0802L42.3988 44.0002H70.1188V35.9002H53.8026ZM74.2479 35.2683C75.3732 34.094 76.8224 33.5202 78.5098 33.5202C80.2306 33.5202 81.6997 34.025 82.7732 35.1497C83.8411 36.2684 84.3098 37.7865 84.3098 39.5602C84.3098 41.2858 83.8039 42.781 82.727 43.9559L82.7198 43.9637L82.7125 43.9714C81.6183 45.1153 80.1835 45.6602 78.5098 45.6602C76.758 45.6602 75.2648 45.1603 74.1865 44.0306C73.1145 42.9076 72.6498 41.3659 72.6498 39.5602C72.6498 37.8676 73.161 36.4045 74.2479 35.2683ZM74.9099 43.3402C75.7498 44.2202 76.9498 44.6602 78.5098 44.6602C79.9498 44.6602 81.1098 44.2002 81.9898 43.2802C82.8699 42.3202 83.3098 41.0802 83.3098 39.5602C83.3098 37.9602 82.8898 36.7202 82.0499 35.8402C81.2098 34.9602 80.0298 34.5202 78.5098 34.5202C77.0698 34.5202 75.8898 35.0002 74.9698 35.9602C74.0898 36.8802 73.6498 38.0802 73.6498 39.5602C73.6498 41.2002 74.0698 42.4602 74.9099 43.3402Z" fill="#29C66F"></path></svg>