<svg xmlns="http://www.w3.org/2000/svg" width="86" height="46" viewBox="0 0 86 46" fill="none"><path fill-rule="evenodd" clip-rule="evenodd" d="M8.76184 42.8497L8.75577 42.8456C6.05656 41.0032 4.0033 38.3816 2.5792 35.0308L2.57627 35.0238L2.57344 35.0169C1.19266 31.6277 0.519531 27.6129 0.519531 22.9996C0.519531 18.3869 1.19249 14.39 2.57509 11.0383L2.57745 11.0326C4.00048 7.64241 6.05346 4.9981 8.75579 3.15366L8.76183 3.14954C11.5129 1.30118 14.7949 0.399609 18.5595 0.399609C22.3241 0.399609 25.6062 1.3012 28.3572 3.14956C31.102 4.99368 33.1582 7.64005 34.5428 11.0353C35.9666 14.3887 36.6595 18.3868 36.6595 22.9996C36.6595 27.6147 35.9659 31.632 34.5429 35.0235C33.1572 38.3817 31.1 41.0069 28.3572 42.8497C25.6062 44.698 22.3241 45.5996 18.5595 45.5996C14.7949 45.5996 11.5129 44.698 8.76184 42.8497ZM33.6195 11.4196C32.2995 8.17961 30.3595 5.69961 27.7995 3.97961C25.2395 2.25961 22.1595 1.39961 18.5595 1.39961C14.9595 1.39961 11.8795 2.25961 9.31953 3.97961C6.79953 5.69961 4.85953 8.17961 3.49953 11.4196C2.17953 14.6196 1.51953 18.4796 1.51953 22.9996C1.51953 27.5196 2.17953 31.3996 3.49953 34.6396C4.85953 37.8396 6.79953 40.2996 9.31953 42.0196C11.8795 43.7396 14.9595 44.5996 18.5595 44.5996C22.1595 44.5996 25.2395 43.7396 27.7995 42.0196C30.3595 40.2996 32.2995 37.8396 33.6195 34.6396C34.9795 31.3996 35.6595 27.5196 35.6595 22.9996C35.6595 18.4796 34.9795 14.6196 33.6195 11.4196ZM23.9484 32.7347C25.2902 30.5587 26.0195 27.3515 26.0195 22.9996C26.0195 18.5653 25.2895 15.2957 23.9445 13.0782L23.9383 13.0679C22.6689 10.9171 20.908 9.89961 18.5595 9.89961C16.2114 9.89961 14.427 10.9176 13.1177 13.0731C11.8094 15.2931 11.0995 18.5655 11.0995 22.9996C11.0995 27.3515 11.8087 30.5614 13.1139 32.7399C14.4197 34.8543 16.2036 35.8596 18.5595 35.8596C20.916 35.8596 22.6763 34.8546 23.942 32.7451L23.9484 32.7347ZM12.2595 12.5596C13.7395 10.1196 15.8395 8.89961 18.5595 8.89961C21.2795 8.89961 23.3595 10.1196 24.7995 12.5596C26.2795 14.9996 27.0195 18.4796 27.0195 22.9996C27.0195 27.4396 26.2795 30.8596 24.7995 33.2596C23.3595 35.6596 21.2795 36.8596 18.5595 36.8596C15.8395 36.8596 13.7395 35.6596 12.2595 33.2596C10.8195 30.8596 10.0995 27.4396 10.0995 22.9996C10.0995 18.4796 10.8195 14.9996 12.2595 12.5596ZM50.3617 44.9996L49.7055 43.3591L56.0231 30.4315C54.8954 30.7418 53.7732 30.8996 52.6587 30.8996C50.1858 30.8996 47.8975 30.2238 45.8162 28.8797C43.7574 27.55 42.1068 25.7899 40.8695 23.6139C39.6203 21.4171 38.9987 19.0057 38.9987 16.3996C38.9987 13.3603 39.6971 10.5876 41.1096 8.10509L41.116 8.09385C42.5629 5.62553 44.5276 3.68077 46.9987 2.27358C49.4837 0.818262 52.2791 0.0996094 55.3587 0.0996094C57.5605 0.0996094 59.6479 0.501931 61.6119 1.31178C63.5683 2.07863 65.297 3.18795 66.7902 4.63716C68.2799 6.04304 69.4356 7.66764 70.2495 9.50662C71.1103 11.3607 71.5388 13.3422 71.5388 15.4396C71.5388 16.7824 71.4128 18.1423 71.1626 19.5185C70.9131 20.8906 70.5405 22.3167 70.0474 23.7958L70.0447 23.8039C69.5528 25.2386 68.921 26.8068 68.152 28.507C67.4271 30.158 66.583 31.9866 65.6203 33.9923L65.6168 33.9996L60.1168 44.9996H50.3617ZM67.2388 28.0996C67.9988 26.4196 68.6188 24.8796 69.0988 23.4796C69.5788 22.0396 69.9388 20.6596 70.1788 19.3396C70.4188 18.0196 70.5388 16.7196 70.5388 15.4396C70.5388 13.4796 70.1388 11.6396 69.3388 9.91961C68.5788 8.19961 67.4988 6.67961 66.0988 5.35961C64.6988 3.99961 63.0787 2.95961 61.2388 2.23961C59.3988 1.47961 57.4388 1.09961 55.3587 1.09961C52.4388 1.09961 49.8187 1.77961 47.4987 3.13961C45.1787 4.45961 43.3387 6.27961 41.9787 8.59961C40.6587 10.9196 39.9987 13.5196 39.9987 16.3996C39.9987 18.8396 40.5788 21.0796 41.7388 23.1196C42.8988 25.1596 44.4388 26.7996 46.3587 28.0396C48.2788 29.2796 50.3787 29.8996 52.6587 29.8996C53.8587 29.8996 55.0788 29.6996 56.3188 29.2996C56.4239 29.2623 56.5286 29.2237 56.6328 29.1838C57.1174 28.9984 57.5927 28.7851 58.0586 28.5438L50.7988 43.3996L51.0387 43.9996H59.4988L64.7188 33.5596C65.6788 31.5596 66.5188 29.7396 67.2388 28.0996ZM58.4188 9.61961C59.4588 10.2196 60.2588 11.0596 60.8187 12.1396C61.4188 13.1796 61.7188 14.3796 61.7188 15.7396C61.7188 16.9796 61.4188 18.1196 60.8187 19.1596C60.2188 20.1596 59.3988 20.9596 58.3587 21.5596C57.3187 22.1596 56.1188 22.4596 54.7588 22.4596C53.5588 22.4596 52.4588 22.1396 51.4588 21.4996C50.4987 20.8596 49.7188 20.0396 49.1188 19.0396C48.5588 17.9996 48.2788 16.8796 48.2788 15.6796C48.2788 14.2796 48.5588 13.0596 49.1188 12.0196C49.7188 10.9796 50.4987 10.1596 51.4588 9.55961C52.4588 8.95961 53.5788 8.65961 54.8187 8.65961C56.1787 8.65961 57.3787 8.97961 58.4188 9.61961ZM51.9811 10.4124C51.1757 10.9175 50.5129 11.6086 49.9924 12.5065C49.5286 13.3735 49.2788 14.4207 49.2788 15.6796C49.2788 16.709 49.5153 17.659 49.9883 18.5451C50.5096 19.4077 51.1802 20.1104 52.0056 20.6623C52.8407 21.1948 53.7508 21.4596 54.7588 21.4596C55.967 21.4596 56.9903 21.1946 57.859 20.6934C58.7538 20.1772 59.4473 19.4989 59.9568 18.6525C60.4634 17.7716 60.7188 16.8072 60.7188 15.7396C60.7188 14.5313 60.4538 13.5081 59.9526 12.6393L59.9413 12.6199L59.931 12.5999C59.4577 11.6871 58.7913 10.989 57.919 10.4858L57.9067 10.4787L57.8947 10.4713C57.0297 9.93902 56.0154 9.65961 54.8187 9.65961C53.7514 9.65961 52.8138 9.9147 51.9811 10.4124ZM75.5369 35.2677C76.6622 34.0935 78.1114 33.5196 79.7989 33.5196C81.5196 33.5196 82.9887 34.0245 84.0623 35.1491C85.1302 36.2679 85.5989 37.786 85.5989 39.5596C85.5989 41.2852 85.093 42.7805 84.0161 43.9553L84.0089 43.9632L84.0015 43.9708C82.9074 45.1147 81.4726 45.6596 79.7989 45.6596C78.047 45.6596 76.5539 45.1598 75.4756 44.0301C74.4035 42.907 73.9389 41.3653 73.9389 39.5596C73.9389 37.867 74.4501 36.4039 75.5369 35.2677ZM76.1989 43.3396C77.0389 44.2196 78.2389 44.6596 79.7989 44.6596C81.2389 44.6596 82.3989 44.1996 83.2789 43.2796C84.1589 42.3196 84.5989 41.0796 84.5989 39.5596C84.5989 37.9596 84.1789 36.7196 83.3389 35.8396C82.4989 34.9596 81.3189 34.5196 79.7989 34.5196C78.3589 34.5196 77.1789 34.9996 76.2589 35.9596C75.3789 36.8796 74.9389 38.0796 74.9389 39.5596C74.9389 41.1996 75.3589 42.4596 76.1989 43.3396Z" fill="#24B06A"></path></svg>