<svg xmlns="http://www.w3.org/2000/svg" width="87" height="46" viewBox="0 0 87 46" fill="none"><path fill-rule="evenodd" clip-rule="evenodd" d="M8.76184 42.8504L8.75577 42.8464C6.05656 41.004 4.0033 38.3824 2.5792 35.0315L2.57627 35.0246L2.57344 35.0177C1.19266 31.6285 0.519531 27.6137 0.519531 23.0004C0.519531 18.3876 1.19249 14.3908 2.57509 11.0391L2.57745 11.0333L2.57747 11.0334C4.0005 7.6432 6.05346 4.99888 8.75579 3.15444L8.76183 3.15032L8.76184 3.15034C11.5129 1.30198 14.7949 0.400391 18.5595 0.400391C22.3241 0.400391 25.6062 1.30198 28.3572 3.15034C31.102 4.99446 33.1582 7.64083 34.5428 11.0361C35.9666 14.3895 36.6595 18.3876 36.6595 23.0004C36.6595 27.6155 35.9659 31.6328 34.5429 35.0243C33.1572 38.3824 31.1 41.0077 28.3572 42.8504C25.6062 44.6988 22.3241 45.6004 18.5595 45.6004C14.7949 45.6004 11.5129 44.6988 8.76184 42.8504ZM33.6195 11.4204C32.2995 8.18039 30.3595 5.70039 27.7995 3.98039C25.2395 2.26039 22.1595 1.40039 18.5595 1.40039C14.9595 1.40039 11.8795 2.26039 9.31953 3.98039C6.79953 5.70039 4.85953 8.18039 3.49953 11.4204C2.17953 14.6204 1.51953 18.4804 1.51953 23.0004C1.51953 27.5204 2.17953 31.4004 3.49953 34.6404C4.85953 37.8404 6.79953 40.3004 9.31953 42.0204C11.8795 43.7404 14.9595 44.6004 18.5595 44.6004C22.1595 44.6004 25.2395 43.7404 27.7995 42.0204C30.3595 40.3004 32.2995 37.8404 33.6195 34.6404C34.9795 31.4004 35.6595 27.5204 35.6595 23.0004C35.6595 18.4804 34.9795 14.6204 33.6195 11.4204ZM23.9483 32.7355L23.9484 32.7355C25.2902 30.5595 26.0195 27.3523 26.0195 23.0004C26.0195 18.5661 25.2895 15.2964 23.9445 13.079L23.9383 13.0687L23.9383 13.0686C22.669 10.9178 20.908 9.90039 18.5595 9.90039C16.2114 9.90039 14.427 10.9184 13.1177 13.0738C11.8094 15.2939 11.0995 18.5663 11.0995 23.0004C11.0995 27.3522 11.8087 30.5622 13.1139 32.7407C14.4197 34.855 16.2036 35.8604 18.5595 35.8604C20.916 35.8604 22.6763 34.8554 23.942 32.7459L23.9483 32.7355ZM12.2595 12.5604C13.7395 10.1204 15.8395 8.90039 18.5595 8.90039C21.2795 8.90039 23.3595 10.1204 24.7995 12.5604C26.2795 15.0004 27.0195 18.4804 27.0195 23.0004C27.0195 27.4404 26.2795 30.8604 24.7995 33.2604C23.3595 35.6604 21.2795 36.8604 18.5595 36.8604C15.8395 36.8604 13.7395 35.6604 12.2595 33.2604C10.8195 30.8604 10.0995 27.4404 10.0995 23.0004C10.0995 18.4804 10.8195 15.0004 12.2595 12.5604ZM47.9042 43.4611L47.8978 43.4579C45.4853 42.2729 43.5332 40.6712 42.0685 38.6465C40.5852 36.596 39.8387 34.2909 39.8387 31.7604C39.8387 30.2373 40.0291 28.819 40.4209 27.513L40.4253 27.4985L40.4301 27.4842C40.8656 26.1776 41.5002 24.9938 42.3347 23.9397L42.3425 23.9299L42.3505 23.9202C43.1956 22.9062 44.2002 22.0213 45.358 21.2641C44.5567 20.6415 43.8488 19.9488 43.2379 19.1851C42.5306 18.301 41.9935 17.3417 41.6343 16.3089L41.63 16.2966L41.6301 16.2966C41.2751 15.2318 41.0988 14.1249 41.0988 12.9804C41.0988 10.6147 41.7824 8.46925 43.1476 6.57559C44.4929 4.70947 46.2868 3.24645 48.5019 2.18084C50.7693 1.06925 53.2606 0.520392 55.9588 0.520392C58.6553 0.520392 61.1284 1.06862 63.359 2.18247C65.5725 3.24794 67.3653 4.71041 68.7099 6.57559C70.0751 8.46925 70.7588 10.6147 70.7588 12.9804C70.7588 14.1178 70.5845 15.2033 70.2297 16.2304C69.9102 17.2714 69.3903 18.2362 68.6816 19.1227C68.0498 19.9224 67.2703 20.6484 66.3545 21.305C67.5284 22.0328 68.5268 22.9304 69.3413 23.9974C70.2095 25.0432 70.8817 26.2181 71.3576 27.5161C71.8417 28.8364 72.0788 30.2541 72.0788 31.7604C72.0788 34.327 71.3346 36.6529 69.849 38.7065C68.3819 40.7346 66.4253 42.3185 64.0068 43.4641C61.5789 44.6142 58.8904 45.1804 55.9588 45.1804C53.0271 45.1804 50.3386 44.6142 47.9107 43.4641L47.9042 43.4611ZM68.5588 24.6204C67.7988 23.6204 66.8588 22.7804 65.7388 22.1004C65.6455 22.0382 65.5513 21.9772 65.4562 21.9174C65.1342 21.7149 64.802 21.526 64.4594 21.3509C64.7985 21.1554 65.1213 20.9505 65.4278 20.7365C65.4922 20.6915 65.5558 20.6462 65.6188 20.6004C66.5388 19.9604 67.2988 19.2604 67.8988 18.5004C68.5388 17.7004 68.9988 16.8404 69.2788 15.9204C69.5988 15.0004 69.7588 14.0204 69.7588 12.9804C69.7588 10.8204 69.1388 8.88039 67.8988 7.16039C66.6588 5.44039 64.9987 4.08039 62.9188 3.08039C60.8387 2.04039 58.5187 1.52039 55.9588 1.52039C53.3988 1.52039 51.0588 2.04039 48.9388 3.08039C46.8587 4.08039 45.1987 5.44039 43.9587 7.16039C42.7188 8.88039 42.0988 10.8204 42.0988 12.9804C42.0988 14.0204 42.2588 15.0204 42.5788 15.9804C42.8988 16.9004 43.3787 17.7604 44.0187 18.5604C44.6538 19.3542 45.407 20.0693 46.2784 20.7056C46.2852 20.7105 46.292 20.7155 46.2987 20.7204C46.603 20.9278 46.9216 21.1257 47.2545 21.314C46.906 21.4955 46.5715 21.6847 46.251 21.8818C46.1659 21.9341 46.0818 21.987 45.9987 22.0404C44.8787 22.7604 43.9188 23.6004 43.1188 24.5604C42.3587 25.5204 41.7788 26.6004 41.3787 27.8004C41.0187 29.0004 40.8387 30.3204 40.8387 31.7604C40.8387 34.0804 41.5187 36.1804 42.8787 38.0604C44.2388 39.9404 46.0588 41.4404 48.3387 42.5604C50.6188 43.6404 53.1587 44.1804 55.9588 44.1804C58.7588 44.1804 61.2988 43.6404 63.5787 42.5604C65.8587 41.4804 67.6788 40.0004 69.0387 38.1204C70.3988 36.2404 71.0788 34.1204 71.0788 31.7604C71.0788 30.3604 70.8588 29.0604 70.4188 27.8604C69.9788 26.6604 69.3588 25.5804 68.5588 24.6204ZM60.7608 28.8862L60.7551 28.8773C60.2971 28.1575 59.6544 27.5732 58.7974 27.1276L58.7899 27.1237L58.7825 27.1197C57.9876 26.6891 57.0553 26.4604 55.9588 26.4604C54.8662 26.4604 53.9094 26.6876 53.0676 27.1237C52.2535 27.5661 51.6253 28.1498 51.1624 28.8773L51.1567 28.8862L51.1508 28.8951C50.7121 29.5531 50.4787 30.3354 50.4787 31.2804C50.4787 32.1253 50.7017 32.8682 51.1445 33.5363C51.601 34.1851 52.2283 34.7387 53.0534 35.1894C53.8979 35.5904 54.8603 35.8004 55.9588 35.8004C57.0214 35.8004 57.9719 35.5889 58.826 35.1789C59.6883 34.765 60.3246 34.2331 60.773 33.5962C61.2116 32.9343 61.4388 32.1731 61.4388 31.2804C61.4388 30.3354 61.2054 29.5531 60.7667 28.8951L60.7608 28.8862ZM61.5988 34.1604C61.0387 34.9604 60.2588 35.6004 59.2588 36.0804C58.2588 36.5604 57.1587 36.8004 55.9588 36.8004C54.7188 36.8004 53.5988 36.5604 52.5988 36.0804C51.6387 35.5604 50.8787 34.9004 50.3187 34.1004C49.7588 33.2604 49.4787 32.3204 49.4787 31.2804C49.4787 30.1604 49.7588 29.1804 50.3187 28.3404C50.8787 27.4604 51.6387 26.7604 52.5988 26.2404C53.5988 25.7204 54.7188 25.4604 55.9588 25.4604C57.1987 25.4604 58.2988 25.7204 59.2588 26.2404C60.2588 26.7604 61.0387 27.4604 61.5988 28.3404C62.1587 29.1804 62.4388 30.1604 62.4388 31.2804C62.4388 32.3604 62.1587 33.3204 61.5988 34.1604ZM60.008 15.2749L60.0081 15.2749C60.3949 14.7393 60.5988 14.1081 60.5988 13.3404C60.5988 12.6225 60.4004 12.0091 60.0081 11.4659L59.9899 11.4407L59.9733 11.4144C59.5925 10.8115 59.0677 10.3292 58.3747 9.96622C57.6967 9.61107 56.8998 9.42039 55.9588 9.42039C55.0218 9.42039 54.1996 9.60952 53.4735 9.97106C52.7851 10.3335 52.2633 10.8141 51.8842 11.4144L51.8776 11.4248L51.8708 11.4351C51.5074 11.9802 51.3187 12.6047 51.3187 13.3404C51.3187 14.1201 51.5095 14.7589 51.8635 15.2947C52.2352 15.8173 52.7562 16.2698 53.4579 16.6415C54.1873 16.9684 55.0156 17.1404 55.9588 17.1404C56.9059 17.1404 57.7097 16.967 58.3918 16.6456C59.1023 16.2705 59.6283 15.8129 60.0018 15.2837L60.008 15.2749ZM58.8387 17.5404C57.9987 17.9404 57.0387 18.1404 55.9588 18.1404C54.8787 18.1404 53.8988 17.9404 53.0187 17.5404C52.1787 17.1004 51.5187 16.5404 51.0387 15.8604C50.5588 15.1404 50.3187 14.3004 50.3187 13.3404C50.3187 12.4204 50.5588 11.6004 51.0387 10.8804C51.5187 10.1204 52.1787 9.52039 53.0187 9.08039C53.8988 8.64039 54.8787 8.42039 55.9588 8.42039C57.0387 8.42039 57.9987 8.64039 58.8387 9.08039C59.6787 9.52039 60.3387 10.1204 60.8187 10.8804C61.3387 11.6004 61.5988 12.4204 61.5988 13.3404C61.5988 14.3004 61.3387 15.1404 60.8187 15.8604C60.3387 16.5404 59.6787 17.1004 58.8387 17.5404ZM76.8839 35.2692L76.8846 35.2685C78.0099 34.0942 79.4591 33.5204 81.1466 33.5204C82.8673 33.5204 84.3364 34.0253 85.4099 35.1499C86.4778 36.2687 86.9466 37.7868 86.9466 39.5604C86.9466 41.286 86.4407 42.7813 85.3637 43.9561L85.3565 43.9639L85.3492 43.9716C84.255 45.1155 82.8202 45.6604 81.1466 45.6604C79.3947 45.6604 77.9016 45.1606 76.8232 44.0309C75.7512 42.9078 75.2866 41.3661 75.2866 39.5604C75.2866 37.8678 75.7971 36.4054 76.8839 35.2692ZM77.5466 43.3404C78.3866 44.2204 79.5866 44.6604 81.1466 44.6604C82.5866 44.6604 83.7466 44.2004 84.6266 43.2804C85.5066 42.3204 85.9466 41.0804 85.9466 39.5604C85.9466 37.9604 85.5266 36.7204 84.6866 35.8404C83.8466 34.9604 82.6666 34.5204 81.1466 34.5204C79.7066 34.5204 78.5266 35.0004 77.6066 35.9604C76.7266 36.8804 76.2866 38.0804 76.2866 39.5604C76.2866 41.2004 76.7066 42.4604 77.5466 43.3404Z" fill="#16315E"></path></svg>