<svg xmlns="http://www.w3.org/2000/svg" width="86" height="46" viewBox="0 0 86 46" fill="none"><path fill-rule="evenodd" clip-rule="evenodd" d="M8.76184 42.8499L8.75577 42.8458C6.05656 41.0035 4.0033 38.3818 2.5792 35.031L2.57627 35.0241L2.57344 35.0171C1.19266 31.628 0.519531 27.6132 0.519531 22.9998C0.519531 18.3871 1.19249 14.3903 2.57509 11.0385L2.57745 11.0328C4.00048 7.64264 6.05346 4.99834 8.75579 3.15389L8.76183 3.14977C11.5129 1.30141 14.7949 0.399843 18.5595 0.399843C22.3241 0.399843 25.6062 1.30144 28.3572 3.14979C31.102 4.99391 33.1582 7.64028 34.5428 11.0355C35.9666 14.3889 36.6595 18.3871 36.6595 22.9998C36.6595 27.6149 35.9659 31.6322 34.5429 35.0238C33.1572 38.3819 31.1 41.0071 28.3572 42.8499C25.6062 44.6982 22.3241 45.5998 18.5595 45.5998C14.7949 45.5998 11.5129 44.6982 8.76184 42.8499ZM33.6195 11.4198C32.2995 8.17984 30.3595 5.69984 27.7995 3.97984C25.2395 2.25984 22.1595 1.39984 18.5595 1.39984C14.9595 1.39984 11.8795 2.25984 9.31953 3.97984C6.79953 5.69984 4.85953 8.17984 3.49953 11.4198C2.17953 14.6198 1.51953 18.4798 1.51953 22.9998C1.51953 27.5198 2.17953 31.3998 3.49953 34.6398C4.85953 37.8398 6.79953 40.2998 9.31953 42.0198C11.8795 43.7398 14.9595 44.5998 18.5595 44.5998C22.1595 44.5998 25.2395 43.7398 27.7995 42.0198C30.3595 40.2998 32.2995 37.8398 33.6195 34.6398C34.9795 31.3998 35.6595 27.5198 35.6595 22.9998C35.6595 18.4798 34.9795 14.6198 33.6195 11.4198ZM23.9484 32.735C25.2902 30.5589 26.0195 27.3518 26.0195 22.9998C26.0195 18.5656 25.2895 15.2959 23.9445 13.0785L23.9383 13.0681C22.6689 10.9173 20.908 9.89984 18.5595 9.89984C16.2114 9.89984 14.427 10.9178 13.1177 13.0733C11.8094 15.2934 11.0995 18.5658 11.0995 22.9998C11.0995 27.3517 11.8087 30.5616 13.1139 32.7402C14.4197 34.8545 16.2036 35.8598 18.5595 35.8598C20.916 35.8598 22.6763 34.8548 23.942 32.7453L23.9484 32.735ZM12.2595 12.5598C13.7395 10.1198 15.8395 8.89984 18.5595 8.89984C21.2795 8.89984 23.3595 10.1198 24.7995 12.5598C26.2795 14.9998 27.0195 18.4798 27.0195 22.9998C27.0195 27.4398 26.2795 30.8598 24.7995 33.2598C23.3595 35.6598 21.2795 36.8598 18.5595 36.8598C15.8395 36.8598 13.7395 35.6598 12.2595 33.2598C10.8195 30.8598 10.0995 27.4398 10.0995 22.9998C10.0995 18.4798 10.8195 14.9998 12.2595 12.5598ZM49.217 43.7841C47.2622 42.9767 45.5347 41.8473 44.042 40.3971L44.0316 40.387L44.0215 40.3766C42.5786 38.8913 41.4324 37.1927 40.5849 35.286L40.5796 35.2739L40.5745 35.2616C39.7613 33.2928 39.3587 31.1822 39.3587 28.9398C39.3587 27.5107 39.5059 26.0831 39.7993 24.6582L39.8021 24.6445L39.8053 24.6308C40.1386 23.2143 40.6154 21.7452 41.232 20.2241C41.8464 18.7085 42.5815 17.1572 43.4359 15.5702C44.2839 13.9551 45.2314 12.262 46.2778 10.4911L46.2798 10.4877L52.3307 0.339844H61.9758L62.6548 2.03726L55.2818 13.9385C56.11 13.7537 56.936 13.6598 57.7588 13.6598C60.3073 13.6598 62.6543 14.3533 64.7757 15.7362C66.9152 17.0649 68.6091 18.8463 69.8486 21.0665C71.1368 23.3019 71.7788 25.7529 71.7788 28.3998C71.7788 31.5509 71.0841 34.4016 69.6725 36.9262C68.3068 39.4002 66.4019 41.3687 63.971 42.8187C61.5188 44.2814 58.7178 44.9998 55.5988 44.9998C53.3562 44.9998 51.2284 44.5973 49.224 43.787L49.217 43.7841ZM68.7988 36.4398C70.1188 34.0798 70.7788 31.3998 70.7788 28.3998C70.7788 25.9198 70.1788 23.6398 68.9788 21.5598C67.8188 19.4798 66.2388 17.8198 64.2388 16.5798C62.2788 15.2998 60.1188 14.6598 57.7588 14.6598C56.6938 14.6598 55.6131 14.8331 54.5167 15.1796C54.3776 15.2236 54.2383 15.2703 54.0988 15.3198C53.7362 15.4368 53.3787 15.5709 53.0264 15.722C53.2738 15.3028 53.5284 14.8788 53.7901 14.45C53.7962 14.44 53.8023 14.43 53.8085 14.42C53.8235 14.3954 53.8386 14.3707 53.8537 14.3461C53.8753 14.3107 53.897 14.2753 53.9188 14.2398L61.5387 1.93984L61.2988 1.33984H52.8988L47.1387 10.9998C46.0988 12.7598 45.1587 14.4398 44.3187 16.0398C43.4787 17.5998 42.7588 19.1198 42.1587 20.5998C41.5588 22.0798 41.0988 23.4998 40.7788 24.8598C40.4987 26.2198 40.3587 27.5798 40.3587 28.9398C40.3587 31.0598 40.7388 33.0398 41.4987 34.8798C42.2987 36.6798 43.3787 38.2798 44.7388 39.6798C46.1387 41.0398 47.7588 42.0998 49.5988 42.8598C51.4788 43.6198 53.4788 43.9998 55.5988 43.9998C58.5588 43.9998 61.1788 43.3198 63.4588 41.9598C65.7388 40.5998 67.5188 38.7598 68.7988 36.4398ZM48.8131 26.8419C48.6169 27.5085 48.5187 28.2078 48.5187 28.9398C48.5187 30.3798 48.8187 31.6598 49.4188 32.7798C50.0588 33.8598 50.9188 34.7398 51.9987 35.4198C53.0788 36.0598 54.3187 36.3798 55.7188 36.3798C57.0788 36.3798 58.2788 36.0798 59.3188 35.4798C60.3988 34.8398 61.2388 33.9598 61.8388 32.8398C62.4388 31.7198 62.7388 30.4398 62.7388 28.9998C62.7388 27.7598 62.4188 26.5998 61.7788 25.5198C61.1787 24.3998 60.3587 23.4998 59.3188 22.8198C58.2788 22.1398 57.0988 21.7998 55.7788 21.7998C54.3787 21.7998 53.1188 22.1398 51.9987 22.8198C50.9188 23.4598 50.0588 24.3198 49.4188 25.3998C49.329 25.5614 49.246 25.7252 49.1696 25.8912C49.0275 26.2004 48.9087 26.5173 48.8131 26.8419ZM50.2862 25.8976C49.7762 26.8203 49.5187 27.8283 49.5187 28.9398C49.5187 30.2288 49.7844 31.3366 50.2901 32.2887C50.8443 33.2174 51.5837 33.9744 52.52 34.5663C53.4259 35.1002 54.4822 35.3798 55.7188 35.3798C56.9247 35.3798 57.9463 35.1159 58.8139 34.6166C59.7325 34.0711 60.4433 33.3271 60.9573 32.3676C61.4696 31.4113 61.7388 30.2973 61.7388 28.9998C61.7388 27.9416 61.4682 26.9573 60.9185 26.0296L60.9075 26.0111L60.8973 25.9921C60.3745 25.0163 59.668 24.243 58.7715 23.6568C57.9045 23.0899 56.9171 22.7998 55.7788 22.7998C54.5487 22.7998 53.4705 23.0962 52.5177 23.6746L52.5086 23.6802C51.577 24.2322 50.8398 24.9677 50.2862 25.8976ZM75.7127 35.2679C76.838 34.0937 78.2872 33.5198 79.9747 33.5198C81.6954 33.5198 83.1645 34.0247 84.238 35.1494C85.306 36.2681 85.7747 37.7862 85.7747 39.5598C85.7747 41.2855 85.2688 42.7807 84.1918 43.9556L84.1847 43.9634L84.1773 43.9711C83.0832 45.115 81.6483 45.6598 79.9747 45.6598C78.2228 45.6598 76.7297 45.16 75.6513 44.0303C74.5793 42.9073 74.1147 41.3655 74.1147 39.5598C74.1147 37.8672 74.6259 36.4042 75.7127 35.2679ZM76.3747 43.3398C77.2147 44.2198 78.4147 44.6598 79.9747 44.6598C81.4147 44.6598 82.5747 44.1998 83.4547 43.2798C84.3347 42.3198 84.7747 41.0798 84.7747 39.5598C84.7747 37.9598 84.3547 36.7198 83.5147 35.8398C82.6747 34.9598 81.4947 34.5198 79.9747 34.5198C78.5347 34.5198 77.3547 34.9998 76.4347 35.9598C75.5547 36.8798 75.1147 38.0798 75.1147 39.5598C75.1147 41.1998 75.5347 42.4598 76.3747 43.3398Z" fill="#B86054"></path></svg>