<svg xmlns="http://www.w3.org/2000/svg" width="91" height="46" viewBox="0 0 91 46" fill="none"><path fill-rule="evenodd" clip-rule="evenodd" d="M8.76184 42.8504L8.75577 42.8464C6.05656 41.004 4.0033 38.3824 2.5792 35.0315L2.57627 35.0246L2.57344 35.0177C1.19266 31.6285 0.519531 27.6137 0.519531 23.0004C0.519531 18.3876 1.19249 14.3908 2.57509 11.0391L2.57745 11.0333C4.00048 7.64319 6.05346 4.99888 8.75579 3.15444L8.76183 3.15032C11.5129 1.30196 14.7949 0.400391 18.5595 0.400391C22.3241 0.400391 25.6062 1.30198 28.3572 3.15034C31.102 4.99446 33.1582 7.64083 34.5428 11.0361C35.9666 14.3895 36.6595 18.3876 36.6595 23.0004C36.6595 27.6155 35.9659 31.6328 34.5429 35.0243C33.1572 38.3824 31.1 41.0077 28.3572 42.8504C25.6062 44.6988 22.3241 45.6004 18.5595 45.6004C14.7949 45.6004 11.5129 44.6988 8.76184 42.8504ZM33.6195 11.4204C32.2995 8.18039 30.3595 5.70039 27.7995 3.98039C25.2395 2.26039 22.1595 1.40039 18.5595 1.40039C14.9595 1.40039 11.8795 2.26039 9.31953 3.98039C6.79953 5.70039 4.85953 8.18039 3.49953 11.4204C2.17953 14.6204 1.51953 18.4804 1.51953 23.0004C1.51953 27.5204 2.17953 31.4004 3.49953 34.6404C4.85953 37.8404 6.79953 40.3004 9.31953 42.0204C11.8795 43.7404 14.9595 44.6004 18.5595 44.6004C22.1595 44.6004 25.2395 43.7404 27.7995 42.0204C30.3595 40.3004 32.2995 37.8404 33.6195 34.6404C34.9795 31.4004 35.6595 27.5204 35.6595 23.0004C35.6595 18.4804 34.9795 14.6204 33.6195 11.4204ZM23.9484 32.7355C25.2902 30.5595 26.0195 27.3523 26.0195 23.0004C26.0195 18.5661 25.2895 15.2964 23.9445 13.079L23.9383 13.0687C22.6689 10.9179 20.908 9.90039 18.5595 9.90039C16.2114 9.90039 14.427 10.9184 13.1177 13.0738C11.8094 15.2939 11.0995 18.5663 11.0995 23.0004C11.0995 27.3522 11.8087 30.5622 13.1139 32.7407C14.4197 34.855 16.2036 35.8604 18.5595 35.8604C20.916 35.8604 22.6763 34.8554 23.942 32.7459L23.9484 32.7355ZM12.2595 12.5604C13.7395 10.1204 15.8395 8.90039 18.5595 8.90039C21.2795 8.90039 23.3595 10.1204 24.7995 12.5604C26.2795 15.0004 27.0195 18.4804 27.0195 23.0004C27.0195 27.4404 26.2795 30.8604 24.7995 33.2604C23.3595 35.6604 21.2795 36.8604 18.5595 36.8604C15.8395 36.8604 13.7395 35.6604 12.2595 33.2604C10.8195 30.8604 10.0995 27.4404 10.0995 23.0004C10.0995 18.4804 10.8195 15.0004 12.2595 12.5604ZM58.1987 45.0004V35.4604H42.6345L38.3239 27.2563L60.228 0.760389H68.8988V25.9004H75.8588V35.4604H68.8988V45.0004H58.1987ZM67.8988 34.4604H74.8588V26.9004H67.8988V1.76039H60.6987L39.5187 27.3804L43.2388 34.4604H59.1987V44.0004H67.8988V34.4604ZM59.1987 26.9004V15.4194L49.8156 26.9004H59.1987ZM51.9244 25.9004H58.1987V18.2232L51.9244 25.9004ZM80.283 35.2685C81.4083 34.0942 82.8575 33.5204 84.545 33.5204C86.2657 33.5204 87.7348 34.0253 88.8084 35.1499C89.8763 36.2687 90.345 37.7868 90.345 39.5604C90.345 41.286 89.8391 42.7813 88.7622 43.9561L88.755 43.9639L88.7476 43.9716C87.6535 45.1155 86.2187 45.6604 84.545 45.6604C82.7931 45.6604 81.3 45.1606 80.2216 44.0309C79.1496 42.9078 78.685 41.3661 78.685 39.5604C78.685 37.8678 79.1962 36.4047 80.283 35.2685ZM80.945 43.3404C81.785 44.2204 82.985 44.6604 84.545 44.6604C85.985 44.6604 87.145 44.2004 88.025 43.2804C88.905 42.3204 89.345 41.0804 89.345 39.5604C89.345 37.9604 88.925 36.7204 88.085 35.8404C87.245 34.9604 86.065 34.5204 84.545 34.5204C83.105 34.5204 81.925 35.0004 81.005 35.9604C80.125 36.8804 79.685 38.0804 79.685 39.5604C79.685 41.2004 80.105 42.4604 80.945 43.3404Z" fill="#E86042"></path></svg>