<svg xmlns="http://www.w3.org/2000/svg" width="86" height="46" viewBox="0 0 86 46" fill="none"><path fill-rule="evenodd" clip-rule="evenodd" d="M8.76184 42.8504L8.75577 42.8464C6.05656 41.004 4.0033 38.3824 2.5792 35.0315L2.57627 35.0246L2.57344 35.0177C1.19266 31.6285 0.519531 27.6137 0.519531 23.0004C0.519531 18.3876 1.19249 14.3908 2.57509 11.0391L2.57745 11.0333C4.00048 7.64319 6.05346 4.99888 8.75579 3.15444L8.76183 3.15032C11.5129 1.30196 14.7949 0.400391 18.5595 0.400391C22.3241 0.400391 25.6062 1.30198 28.3572 3.15034C31.102 4.99446 33.1582 7.64083 34.5428 11.0361C35.9666 14.3895 36.6595 18.3876 36.6595 23.0004C36.6595 27.6155 35.9659 31.6328 34.5429 35.0243C33.1572 38.3824 31.1 41.0077 28.3572 42.8504C25.6062 44.6988 22.3241 45.6004 18.5595 45.6004C14.7949 45.6004 11.5129 44.6988 8.76184 42.8504ZM33.6195 11.4204C32.2995 8.18039 30.3595 5.70039 27.7995 3.98039C25.2395 2.26039 22.1595 1.40039 18.5595 1.40039C14.9595 1.40039 11.8795 2.26039 9.31953 3.98039C6.79953 5.70039 4.85953 8.18039 3.49953 11.4204C2.17953 14.6204 1.51953 18.4804 1.51953 23.0004C1.51953 27.5204 2.17953 31.4004 3.49953 34.6404C4.85953 37.8404 6.79953 40.3004 9.31953 42.0204C11.8795 43.7404 14.9595 44.6004 18.5595 44.6004C22.1595 44.6004 25.2395 43.7404 27.7995 42.0204C30.3595 40.3004 32.2995 37.8404 33.6195 34.6404C34.9795 31.4004 35.6595 27.5204 35.6595 23.0004C35.6595 18.4804 34.9795 14.6204 33.6195 11.4204ZM23.9484 32.7355C25.2902 30.5595 26.0195 27.3523 26.0195 23.0004C26.0195 18.5661 25.2895 15.2964 23.9445 13.079L23.9383 13.0687C22.6689 10.9179 20.908 9.90039 18.5595 9.90039C16.2114 9.90039 14.427 10.9184 13.1177 13.0738C11.8094 15.2939 11.0995 18.5663 11.0995 23.0004C11.0995 27.3522 11.8087 30.5622 13.1139 32.7407C14.4197 34.855 16.2036 35.8604 18.5595 35.8604C20.916 35.8604 22.6763 34.8554 23.942 32.7459L23.9484 32.7355ZM12.2595 12.5604C13.7395 10.1204 15.8395 8.90039 18.5595 8.90039C21.2795 8.90039 23.3595 10.1204 24.7995 12.5604C26.2795 15.0004 27.0195 18.4804 27.0195 23.0004C27.0195 27.4404 26.2795 30.8604 24.7995 33.2604C23.3595 35.6604 21.2795 36.8604 18.5595 36.8604C15.8395 36.8604 13.7395 35.6604 12.2595 33.2604C10.8195 30.8604 10.0995 27.4404 10.0995 23.0004C10.0995 18.4804 10.8195 15.0004 12.2595 12.5604ZM45.6811 43.3678L45.6749 43.3642C43.0806 41.8508 40.7531 39.3013 38.6613 35.8149L38.1601 34.9797L46.4133 29.7277L46.9545 30.5512C47.8413 31.9008 48.7298 32.9723 49.6145 33.7832C50.5014 34.5962 51.3788 35.1623 52.2439 35.5094C53.1668 35.8635 54.1231 36.0404 55.1188 36.0404C56.151 36.0404 57.1036 35.8025 57.9918 35.3268C58.883 34.81 59.5738 34.1317 60.0813 33.2859L60.0887 33.2735L60.0965 33.2613C60.6222 32.4399 60.8988 31.4714 60.8988 30.3204C60.8988 29.0845 60.6624 28.1252 60.2482 27.3924C59.834 26.6596 59.2313 26.0981 58.406 25.7019C57.5681 25.2997 56.5421 25.0804 55.2988 25.0804C54.7654 25.0804 54.1629 25.1337 53.488 25.246C52.8727 25.3549 52.1872 25.5389 51.4291 25.8043L51.4146 25.8093L51.3999 25.814C50.6853 26.0396 49.9033 26.3441 49.0526 26.7308L48.0794 27.1731L45.3865 20.0179L53.9574 10.6594L41.2788 10.4869V0.760389H68.1618L70.3586 5.23534L60.1331 16.302C60.9138 16.481 61.673 16.7269 62.4099 17.0401C64.122 17.7677 65.6453 18.7758 66.9742 20.0618C68.3085 21.3531 69.3433 22.8614 70.0749 24.5795C70.853 26.3121 71.2388 28.1695 71.2388 30.1404C71.2388 33.0781 70.491 35.7458 68.9837 38.1153C67.5276 40.4271 65.5375 42.2624 63.0355 43.6194L63.0301 43.6223C60.5517 44.947 57.7873 45.6004 54.7588 45.6004C51.3334 45.6004 48.296 44.8681 45.6811 43.3678ZM68.1388 37.5804C69.5388 35.3804 70.2388 32.9004 70.2388 30.1404C70.2388 28.3004 69.8788 26.5804 69.1588 24.9804C68.4788 23.3804 67.5188 21.9804 66.2788 20.7804C65.0388 19.5804 63.6187 18.6404 62.0187 17.9604C61.1606 17.5957 60.2678 17.3287 59.3406 17.1596C58.9434 17.0872 58.5399 17.0327 58.1301 16.9962L69.1588 5.06039L67.5388 1.76039H42.2788V9.50025L56.2014 9.68981L46.5387 20.2404L48.6388 25.8204C48.9527 25.6777 49.259 25.5452 49.5576 25.4229C50.0962 25.2023 50.6099 25.0148 51.0988 24.8604C51.8988 24.5804 52.6388 24.3804 53.3187 24.2604C54.0387 24.1404 54.6987 24.0804 55.2988 24.0804C56.6587 24.0804 57.8387 24.3204 58.8387 24.8004C59.8387 25.2804 60.5988 25.9804 61.1188 26.9004C61.6388 27.8204 61.8988 28.9604 61.8988 30.3204C61.8988 31.6404 61.5788 32.8004 60.9388 33.8004C60.3387 34.8004 59.5187 35.6004 58.4788 36.2004C57.4388 36.7604 56.3187 37.0404 55.1188 37.0404C53.9987 37.0404 52.9188 36.8404 51.8787 36.4404C50.8787 36.0404 49.8988 35.4004 48.9388 34.5204C47.9787 33.6404 47.0387 32.5004 46.1187 31.1004L39.5187 35.3004C41.5588 38.7004 43.7788 41.1004 46.1787 42.5004C48.6188 43.9004 51.4787 44.6004 54.7588 44.6004C57.6388 44.6004 60.2388 43.9804 62.5588 42.7404C64.9187 41.4604 66.7788 39.7404 68.1388 37.5804ZM75.6541 35.2685C76.7794 34.0942 78.2286 33.5204 79.9161 33.5204C81.6368 33.5204 83.1059 34.0253 84.1795 35.1499C85.2474 36.2687 85.7161 37.7868 85.7161 39.5604C85.7161 41.286 85.2102 42.7813 84.1333 43.9561L84.1261 43.9639L84.1187 43.9716C83.0246 45.1155 81.5898 45.6604 79.9161 45.6604C78.1642 45.6604 76.6711 45.1606 75.5927 44.0309C74.5207 42.9078 74.0561 41.3661 74.0561 39.5604C74.0561 37.8678 74.5673 36.4047 75.6541 35.2685ZM76.3161 43.3404C77.1561 44.2204 78.3561 44.6604 79.9161 44.6604C81.3561 44.6604 82.5161 44.2004 83.3961 43.2804C84.2761 42.3204 84.7161 41.0804 84.7161 39.5604C84.7161 37.9604 84.2961 36.7204 83.4561 35.8404C82.6161 34.9604 81.4361 34.5204 79.9161 34.5204C78.4761 34.5204 77.2961 35.0004 76.3761 35.9604C75.4961 36.8804 75.0561 38.0804 75.0561 39.5604C75.0561 41.2004 75.4761 42.4604 76.3161 43.3404Z" fill="#5FD1C1"></path></svg>