<svg xmlns="http://www.w3.org/2000/svg" width="87" height="46" viewBox="0 0 87 46" fill="none"><path fill-rule="evenodd" clip-rule="evenodd" d="M8.76184 42.8504L8.75577 42.8464C6.05656 41.004 4.0033 38.3824 2.5792 35.0315L2.57627 35.0246L2.57344 35.0177C1.19266 31.6285 0.519531 27.6137 0.519531 23.0004C0.519531 18.3876 1.19249 14.3908 2.57509 11.0391L2.57745 11.0333C4.00048 7.64319 6.05346 4.99888 8.75579 3.15444L8.76183 3.15032C11.5129 1.30196 14.7949 0.400391 18.5595 0.400391C22.3241 0.400391 25.6062 1.30198 28.3572 3.15034C31.102 4.99446 33.1582 7.64083 34.5428 11.0361C35.9666 14.3895 36.6595 18.3876 36.6595 23.0004C36.6595 27.6155 35.9659 31.6328 34.5429 35.0243C33.1572 38.3824 31.1 41.0077 28.3572 42.8504C25.6062 44.6988 22.3241 45.6004 18.5595 45.6004C14.7949 45.6004 11.5129 44.6988 8.76184 42.8504ZM33.6195 11.4204C32.2995 8.18039 30.3595 5.70039 27.7995 3.98039C25.2395 2.26039 22.1595 1.40039 18.5595 1.40039C14.9595 1.40039 11.8795 2.26039 9.31953 3.98039C6.79953 5.70039 4.85953 8.18039 3.49953 11.4204C2.17953 14.6204 1.51953 18.4804 1.51953 23.0004C1.51953 27.5204 2.17953 31.4004 3.49953 34.6404C4.85953 37.8404 6.79953 40.3004 9.31953 42.0204C11.8795 43.7404 14.9595 44.6004 18.5595 44.6004C22.1595 44.6004 25.2395 43.7404 27.7995 42.0204C30.3595 40.3004 32.2995 37.8404 33.6195 34.6404C34.9795 31.4004 35.6595 27.5204 35.6595 23.0004C35.6595 18.4804 34.9795 14.6204 33.6195 11.4204ZM23.9484 32.7355C25.2902 30.5595 26.0195 27.3523 26.0195 23.0004C26.0195 18.5661 25.2895 15.2964 23.9445 13.079L23.9383 13.0687C22.6689 10.9179 20.908 9.90039 18.5595 9.90039C16.2114 9.90039 14.427 10.9184 13.1177 13.0738C11.8094 15.2939 11.0995 18.5663 11.0995 23.0004C11.0995 27.3522 11.8087 30.5622 13.1139 32.7407C14.4197 34.855 16.2036 35.8604 18.5595 35.8604C20.916 35.8604 22.6763 34.8554 23.942 32.7459L23.9484 32.7355ZM12.2595 12.5604C13.7395 10.1204 15.8395 8.90039 18.5595 8.90039C21.2795 8.90039 23.3595 10.1204 24.7995 12.5604C26.2795 15.0004 27.0195 18.4804 27.0195 23.0004C27.0195 27.4404 26.2795 30.8604 24.7995 33.2604C23.3595 35.6604 21.2795 36.8604 18.5595 36.8604C15.8395 36.8604 13.7395 35.6604 12.2595 33.2604C10.8195 30.8604 10.0995 27.4404 10.0995 23.0004C10.0995 18.4804 10.8195 15.0004 12.2595 12.5604ZM45.9028 43.4505L45.8942 43.4459C43.3014 42.0858 41.1401 40.132 39.4131 37.6046L38.9697 36.9556L45.1005 30.1436L45.8436 30.9731C47.5264 32.8516 48.9844 34.0428 50.2157 34.6409C51.4689 35.2496 52.8579 35.5604 54.3988 35.5604C55.6565 35.5604 56.7565 35.3109 57.7189 34.8322C58.6836 34.3129 59.4259 33.6157 59.9671 32.7363C60.5053 31.8617 60.7788 30.8847 60.7788 29.7804C60.7788 28.6299 60.5023 27.6341 59.9671 26.7645C59.4181 25.8724 58.6849 25.1722 57.7531 24.6545L57.7336 24.6437L57.7147 24.632C56.8497 24.0998 55.8354 23.8204 54.6388 23.8204C53.819 23.8204 53.0688 23.8949 52.3848 24.0389L52.3599 24.0442L52.3347 24.0482C51.6791 24.1517 50.922 24.3816 50.0575 24.7575L50.0404 24.7649L50.0232 24.7716C49.157 25.1106 48.0776 25.6292 46.7776 26.3383L46.0207 26.7512L41.1706 20.3319L43.9298 0.760389H69.4388V10.5004H52.0487L51.3275 15.3521C51.6878 15.2468 52.0544 15.1519 52.4273 15.0675C53.775 14.7314 55.0929 14.5604 56.3787 14.5604C59.1745 14.5604 61.6923 15.1973 63.9023 16.4964C66.139 17.7877 67.9033 19.5973 69.1874 21.9048C70.524 24.1941 71.1788 26.8093 71.1788 29.7204C71.1788 32.6532 70.4537 35.3345 68.9935 37.7394L68.9894 37.7462C67.5359 40.0975 65.5482 41.9741 63.0469 43.3731L63.0356 43.3795C60.5166 44.7457 57.7103 45.4204 54.6388 45.4204C51.4587 45.4204 48.5434 44.7707 45.9115 43.4548L45.9028 43.4505ZM63.3988 17.3604C61.3587 16.1604 59.0187 15.5604 56.3787 15.5604C55.1787 15.5604 53.9388 15.7204 52.6587 16.0404C52.147 16.1559 51.649 16.2919 51.1645 16.4483C50.8006 16.5658 50.4445 16.6948 50.096 16.8354L51.1863 9.50039H68.4388V1.76039H44.7988L42.2188 20.0604L46.2987 25.4604C47.6188 24.7404 48.7388 24.2004 49.6587 23.8404C50.5788 23.4404 51.4188 23.1804 52.1787 23.0604C52.9388 22.9004 53.7588 22.8204 54.6388 22.8204C55.9988 22.8204 57.1987 23.1404 58.2388 23.7804C59.3188 24.3804 60.1787 25.2004 60.8187 26.2404C61.4588 27.2804 61.7788 28.4604 61.7788 29.7804C61.7788 31.0604 61.4588 32.2204 60.8187 33.2604C60.1787 34.3004 59.2988 35.1204 58.1787 35.7204C57.0588 36.2804 55.7988 36.5604 54.3988 36.5604C52.7188 36.5604 51.1787 36.2204 49.7788 35.5404C48.5661 34.9514 47.2333 33.8971 45.7805 32.3777C45.5561 32.143 45.3289 31.8973 45.0988 31.6404L40.2388 37.0404C41.8787 39.4404 43.9188 41.2804 46.3587 42.5604C48.8387 43.8004 51.5988 44.4204 54.6388 44.4204C57.5588 44.4204 60.1987 43.7804 62.5588 42.5004C64.9187 41.1804 66.7788 39.4204 68.1388 37.2204C69.4988 34.9804 70.1788 32.4804 70.1788 29.7204C70.1788 26.9604 69.5588 24.5204 68.3188 22.4004C67.1188 20.2404 65.4787 18.5604 63.3988 17.3604ZM76.5916 35.2685C77.7169 34.0942 79.1661 33.5204 80.8536 33.5204C82.5743 33.5204 84.0434 34.0253 85.117 35.1499C86.1849 36.2687 86.6536 37.7868 86.6536 39.5604C86.6536 41.286 86.1477 42.7813 85.0708 43.9561L85.0636 43.9639L85.0562 43.9716C83.9621 45.1155 82.5273 45.6604 80.8536 45.6604C79.1017 45.6604 77.6086 45.1606 76.5302 44.0309C75.4582 42.9078 74.9936 41.3661 74.9936 39.5604C74.9936 37.8678 75.5048 36.4047 76.5916 35.2685ZM77.2536 43.3404C78.0936 44.2204 79.2936 44.6604 80.8536 44.6604C82.2936 44.6604 83.4536 44.2004 84.3336 43.2804C85.2136 42.3204 85.6536 41.0804 85.6536 39.5604C85.6536 37.9604 85.2336 36.7204 84.3936 35.8404C83.5536 34.9604 82.3736 34.5204 80.8536 34.5204C79.4136 34.5204 78.2336 35.0004 77.3136 35.9604C76.4336 36.8804 75.9936 38.0804 75.9936 39.5604C75.9936 41.2004 76.4136 42.4604 77.2536 43.3404Z" fill="#F5BA42"></path></svg>