<svg xmlns="http://www.w3.org/2000/svg" width="84" height="46" viewBox="0 0 84 46" fill="none"><path fill-rule="evenodd" clip-rule="evenodd" d="M8.76184 42.8504L8.75577 42.8464C6.05656 41.004 4.0033 38.3824 2.5792 35.0315L2.57627 35.0246L2.57344 35.0177C1.19266 31.6285 0.519531 27.6137 0.519531 23.0004C0.519531 18.3876 1.19249 14.3908 2.57509 11.0391L2.57745 11.0333C4.00048 7.64319 6.05346 4.99888 8.75579 3.15444L8.76183 3.15032C11.5129 1.30196 14.7949 0.400391 18.5595 0.400391C22.3241 0.400391 25.6062 1.30198 28.3572 3.15034C31.102 4.99446 33.1582 7.64083 34.5428 11.0361C35.9666 14.3895 36.6595 18.3876 36.6595 23.0004C36.6595 27.6155 35.9659 31.6328 34.5429 35.0243C33.1572 38.3824 31.1 41.0077 28.3572 42.8504C25.6062 44.6988 22.3241 45.6004 18.5595 45.6004C14.7949 45.6004 11.5129 44.6988 8.76184 42.8504ZM33.6195 11.4204C32.2995 8.18039 30.3595 5.70039 27.7995 3.98039C25.2395 2.26039 22.1595 1.40039 18.5595 1.40039C14.9595 1.40039 11.8795 2.26039 9.31953 3.98039C6.79953 5.70039 4.85953 8.18039 3.49953 11.4204C2.17953 14.6204 1.51953 18.4804 1.51953 23.0004C1.51953 27.5204 2.17953 31.4004 3.49953 34.6404C4.85953 37.8404 6.79953 40.3004 9.31953 42.0204C11.8795 43.7404 14.9595 44.6004 18.5595 44.6004C22.1595 44.6004 25.2395 43.7404 27.7995 42.0204C30.3595 40.3004 32.2995 37.8404 33.6195 34.6404C34.9795 31.4004 35.6595 27.5204 35.6595 23.0004C35.6595 18.4804 34.9795 14.6204 33.6195 11.4204ZM23.9484 32.7355C25.2902 30.5595 26.0195 27.3523 26.0195 23.0004C26.0195 18.5661 25.2895 15.2964 23.9445 13.079L23.9383 13.0687C22.6689 10.9179 20.908 9.90039 18.5595 9.90039C16.2114 9.90039 14.427 10.9184 13.1177 13.0738C11.8094 15.2939 11.0995 18.5663 11.0995 23.0004C11.0995 27.3522 11.8087 30.5622 13.1139 32.7407C14.4197 34.855 16.2036 35.8604 18.5595 35.8604C20.916 35.8604 22.6763 34.8554 23.942 32.7459L23.9484 32.7355ZM12.2595 12.5604C13.7395 10.1204 15.8395 8.90039 18.5595 8.90039C21.2795 8.90039 23.3595 10.1204 24.7995 12.5604C26.2795 15.0004 27.0195 18.4804 27.0195 23.0004C27.0195 27.4404 26.2795 30.8604 24.7995 33.2604C23.3595 35.6604 21.2795 36.8604 18.5595 36.8604C15.8395 36.8604 13.7395 35.6604 12.2595 33.2604C10.8195 30.8604 10.0995 27.4404 10.0995 23.0004C10.0995 18.4804 10.8195 15.0004 12.2595 12.5604ZM50.9788 35.9004V12.08L44.4388 15.2604L42.6987 7.28039L54.3988 1.40039H59.8588V35.9004H67.4188V44.0004H43.5988V35.9004H50.9788ZM60.8588 34.9004H68.4188V45.0004H42.5988V34.9004H49.9788V13.6783L43.7326 16.7158L41.5564 6.73531L54.1616 0.400391H60.8588V34.9004ZM73.8963 35.2685C75.0216 34.0942 76.4708 33.5204 78.1583 33.5204C79.879 33.5204 81.3481 34.0253 82.4216 35.1499C83.4896 36.2687 83.9583 37.7868 83.9583 39.5604C83.9583 41.286 83.4524 42.7813 82.3754 43.9561L82.3683 43.9639L82.3609 43.9716C81.2668 45.1155 79.8319 45.6604 78.1583 45.6604C76.4064 45.6604 74.9133 45.1606 73.8349 44.0309C72.7629 42.9078 72.2983 41.3661 72.2983 39.5604C72.2983 37.8678 72.8095 36.4047 73.8963 35.2685ZM74.5583 43.3404C75.3983 44.2204 76.5983 44.6604 78.1583 44.6604C79.5983 44.6604 80.7583 44.2004 81.6383 43.2804C82.5183 42.3204 82.9583 41.0804 82.9583 39.5604C82.9583 37.9604 82.5383 36.7204 81.6983 35.8404C80.8583 34.9604 79.6783 34.5204 78.1583 34.5204C76.7183 34.5204 75.5383 35.0004 74.6183 35.9604C73.7383 36.8804 73.2983 38.0804 73.2983 39.5604C73.2983 41.2004 73.7183 42.4604 74.5583 43.3404Z" fill="#254ABC"></path></svg>